<?xml version="1.0" standalone="no"?>
<!DOCTYPE svg PUBLIC "-//W3C//DTD SVG 20010904//EN"
 "http://www.w3.org/TR/2001/REC-SVG-20010904/DTD/svg10.dtd">
<svg version="1.0" xmlns="http://www.w3.org/2000/svg"
 width="1280.000000pt" height="1118.000000pt" viewBox="0 0 1280.000000 1118.000000"
 preserveAspectRatio="xMidYMid meet">
<metadata>
Created by potrace 1.15, written by Peter Selinger 2001-2017
</metadata>
<g transform="translate(0.000000,1118.000000) scale(0.100000,-0.100000)"
fill="#000000" stroke="none">
<path d="M914 11165 c43 -113 56 -515 22 -700 -40 -221 -117 -446 -296 -865
-66 -155 -140 -336 -164 -403 -147 -406 -176 -710 -101 -1072 27 -131 151
-509 240 -730 41 -102 60 -167 71 -239 13 -82 31 -153 91 -357 7 -23 -116
-126 -297 -249 -248 -168 -344 -262 -414 -402 -65 -129 -70 -268 -16 -430 42
-126 61 -159 249 -440 92 -139 197 -302 231 -363 135 -234 283 -572 385 -881
l46 -140 -46 -108 c-25 -60 -100 -217 -167 -350 -231 -461 -288 -620 -324
-906 -30 -238 -12 -488 71 -1007 64 -401 89 -654 101 -1023 l6 -195 -47 -60
c-39 -50 -129 -182 -159 -232 -6 -10 67 -13 349 -13 l357 0 -5 23 c-15 56 -39
213 -49 318 l-12 115 91 110 c49 60 122 151 161 201 l70 93 6 -93 c3 -50 10
-171 16 -267 12 -186 21 -272 46 -412 l16 -88 115 0 115 0 -6 26 c-44 173 -60
298 -91 689 -14 176 -28 347 -31 380 -5 45 -2 70 11 100 84 197 110 325 109
550 0 197 -19 337 -74 556 l-29 116 19 74 c11 41 55 149 99 240 88 183 140
303 181 423 l28 79 15 -54 c77 -278 110 -388 182 -606 l82 -252 -94 -153
c-297 -481 -417 -860 -400 -1268 9 -218 48 -395 129 -593 27 -65 37 -102 30
-110 -5 -7 -39 -50 -76 -97 -36 -46 -66 -88 -66 -92 0 -5 108 -8 240 -8 132 0
240 3 240 6 0 3 -4 13 -10 23 -7 14 -2 25 26 52 68 65 231 254 274 318 98 146
153 317 171 531 5 69 11 129 12 133 1 4 19 -22 40 -57 30 -52 41 -88 56 -173
29 -173 66 -269 212 -558 l137 -270 411 -3 410 -2 -25 67 c-83 221 -229 470
-460 783 -111 151 -111 148 -49 279 37 78 136 241 146 241 3 0 25 -44 49 -97
24 -54 85 -186 136 -293 207 -436 283 -644 311 -847 l18 -133 148 0 148 0 -6
58 c-29 244 -99 444 -315 907 -138 296 -209 456 -266 602 l-43 112 35 75 c37
82 92 261 120 399 10 48 21 87 25 87 4 0 10 -17 14 -37 21 -112 132 -376 335
-793 195 -402 414 -864 474 -1002 l45 -105 -23 -114 c-13 -63 -27 -131 -30
-151 l-7 -38 321 0 c273 0 320 2 320 14 0 38 -45 241 -76 344 -19 64 -66 198
-105 299 l-69 185 -4 221 c-4 243 -11 295 -95 767 l-49 275 25 74 c32 99 74
198 180 431 195 423 240 602 230 903 -8 241 -52 415 -164 649 l-56 117 21 108
c81 412 76 702 -19 1093 -83 339 -424 1374 -572 1733 l-23 58 28 137 c42 205
54 337 40 430 -22 137 -68 212 -244 399 -55 59 -122 133 -148 164 l-47 56 -6
109 c-13 213 -39 333 -148 685 l-70 226 35 134 c19 74 80 274 136 444 118 362
149 468 190 665 35 161 70 377 70 428 l0 32 -95 0 c-90 0 -95 -1 -99 -22 -2
-13 -14 -84 -25 -158 -36 -233 -101 -456 -232 -797 -78 -204 -78 -204 -79
-110 -1 268 83 613 233 961 l55 126 -191 -2 -191 -3 -53 -155 c-120 -355 -153
-570 -154 -1003 -1 -235 10 -336 62 -551 l31 -129 -11 -136 c-7 -75 -9 -177
-6 -226 12 -174 68 -388 146 -562 38 -84 38 -84 -36 -463 -47 -243 -84 -461
-85 -501 -1 -28 -19 18 -109 285 -171 503 -272 854 -431 1499 l-98 398 43 127
c50 149 112 306 224 565 114 263 156 371 195 501 31 101 76 304 76 342 0 11
-19 14 -99 14 l-99 0 -12 -67 c-35 -206 -88 -362 -258 -763 -66 -157 -126
-298 -132 -314 -6 -16 -13 -27 -16 -24 -9 10 -42 264 -54 420 -7 87 -10 228
-8 315 l6 158 59 135 60 135 -215 3 c-118 1 -216 1 -218 -1 -2 -1 -12 -44 -23
-95 -25 -116 -82 -288 -204 -613 -52 -140 -103 -280 -113 -312 -10 -31 -21
-54 -25 -50 -8 10 -44 241 -61 393 -7 64 -12 240 -12 398 l-1 282 -171 0 -171
0 -17 -79 c-9 -44 -71 -270 -137 -503 -65 -233 -149 -541 -186 -685 -36 -145
-69 -263 -73 -263 -8 0 -45 240 -66 430 -29 256 -17 779 22 1058 l6 42 -217 0
c-189 0 -216 -2 -211 -15z m1062 -745 c19 -183 45 -333 90 -527 l36 -155 -31
-151 c-46 -223 -61 -350 -66 -562 -3 -104 -12 -239 -20 -298 -18 -127 -20
-427 -4 -542 71 -526 143 -856 262 -1210 l33 -100 -13 -138 c-17 -181 -54
-362 -107 -522 -53 -157 -128 -338 -136 -327 -4 4 -12 32 -19 62 -48 200 -147
472 -326 895 -54 127 -119 287 -146 357 l-49 128 -5 157 c-3 87 -10 208 -15
268 -6 61 -17 178 -25 260 -8 83 -17 220 -20 305 -7 148 -6 160 21 260 26 100
28 117 30 350 2 202 6 267 24 370 40 224 68 337 111 437 111 260 243 640 310
895 l34 127 8 -97 c4 -53 14 -162 23 -242z m770 -280 c14 -85 40 -220 58 -299
l34 -145 -29 -112 c-45 -180 -61 -311 -62 -504 -1 -316 35 -510 194 -1038 146
-488 179 -635 199 -906 20 -263 -11 -728 -64 -978 -24 -116 -74 -293 -80 -287
-5 5 -80 255 -126 419 -107 380 -133 553 -165 1140 -8 151 -22 345 -31 430
-37 372 -121 857 -214 1236 -41 164 -42 171 -30 239 40 232 163 731 242 977
l33 103 7 -60 c5 -33 20 -130 34 -215z m-1742 -910 c-12 -284 -55 -516 -173
-937 -87 -307 -128 -477 -138 -572 -3 -34 -9 -58 -13 -54 -10 11 -82 233 -114
353 -76 284 -83 536 -25 825 34 165 118 400 278 772 83 194 151 354 151 357 0
3 5 17 12 33 10 23 14 -31 20 -307 5 -184 6 -396 2 -470z m2169 -845 c62 -230
179 -648 222 -790 60 -199 178 -571 220 -695 25 -72 45 -144 45 -160 0 -53 49
-285 90 -425 22 -76 89 -268 149 -429 109 -291 109 -291 135 -471 67 -471 53
-748 -63 -1240 -124 -527 -155 -663 -201 -895 -28 -140 -60 -291 -71 -335 -11
-44 -24 -102 -30 -130 -17 -93 -135 -471 -149 -480 -8 -5 -41 157 -80 395 -56
330 -95 430 -325 818 l-78 133 26 142 c64 341 87 591 87 951 0 246 -14 461
-38 596 -7 39 -3 60 31 155 146 408 194 669 217 1185 12 272 4 444 -30 647
-27 159 -64 293 -166 605 -134 414 -186 617 -214 838 -11 94 -14 423 -3 434 4
3 44 -139 88 -316 45 -178 107 -417 138 -533z m-773 -20 c12 -112 23 -280 26
-410 l4 -220 -40 150 c-37 135 -42 168 -51 335 -5 102 -6 259 -2 350 l7 165
17 -90 c10 -49 27 -175 39 -280z m1725 -720 c46 -159 58 -285 52 -545 -4 -202
-36 -602 -53 -680 l-6 -25 -10 25 c-19 49 -67 277 -84 395 -11 80 -17 185 -17
315 0 199 7 279 45 525 24 159 24 159 73 -10z m-3070 -146 c-27 -138 -42 -182
-32 -93 7 65 47 237 54 230 3 -2 -7 -64 -22 -137z m501 -744 c194 -441 285
-710 343 -1010 l18 -90 -36 -82 c-20 -46 -38 -83 -41 -83 -3 0 -18 26 -34 58
-42 86 -113 201 -296 482 -91 140 -183 283 -204 318 l-38 64 50 106 c54 114
105 290 117 405 4 38 11 65 16 60 4 -4 51 -107 105 -228z m3050 -93 c97 -269
192 -565 293 -907 129 -438 156 -602 148 -900 -5 -185 -22 -345 -37 -345 -4 0
-20 19 -35 43 -16 23 -83 116 -150 207 -206 279 -220 302 -240 405 -23 120
-80 291 -150 450 -91 207 -96 237 -75 501 15 178 101 745 127 829 8 26 11 19
119 -283z m-2131 -392 c97 -325 176 -686 211 -959 l16 -129 -42 -108 c-50
-126 -83 -232 -111 -359 -30 -132 -37 -413 -15 -560 16 -106 73 -351 95 -408
14 -35 -10 -148 -124 -607 -46 -184 -89 -360 -95 -391 -10 -51 -104 -229 -120
-229 -11 0 -168 497 -224 705 -95 356 -91 331 -71 448 19 116 51 422 60 577 3
58 16 206 27 330 24 248 30 717 11 863 l-9 79 69 146 c138 293 228 531 258
679 7 35 16 60 20 55 3 -4 23 -63 44 -132z m-1301 -166 c47 -70 62 -104 81
-178 42 -168 57 -277 62 -466 8 -277 -25 -502 -123 -849 -62 -217 -126 -418
-130 -406 -14 41 -201 671 -234 786 -51 180 -90 405 -90 512 1 161 48 297 150
432 66 88 211 255 220 255 4 0 33 -39 64 -86z m402 -649 c34 -66 79 -162 99
-214 l37 -94 -20 -101 c-71 -347 -63 -622 29 -1089 16 -81 29 -164 29 -184 0
-85 -35 -243 -90 -405 -57 -169 -199 -571 -204 -575 -4 -5 -89 298 -175 627
-45 168 -88 332 -97 365 l-17 60 41 135 c92 299 203 775 238 1015 19 129 26
520 11 625 l-7 55 32 -50 c17 -27 59 -104 94 -170z m3149 -950 c97 -117 215
-289 215 -311 0 -9 -29 -118 -65 -242 -104 -365 -154 -594 -187 -847 -18 -143
-15 -556 5 -725 l16 -135 -24 -80 c-40 -128 -55 -235 -55 -395 0 -224 29 -366
141 -702 38 -114 69 -224 69 -245 0 -100 -9 -90 -137 175 -267 550 -358 758
-433 982 -74 222 -100 361 -107 570 -9 300 32 495 199 945 181 485 216 627
240 966 10 145 14 166 26 156 8 -6 52 -57 97 -112z m402 -777 c24 -111 23
-338 -1 -463 -27 -138 -81 -294 -163 -470 -41 -88 -79 -164 -84 -170 -12 -13
-12 335 1 466 21 206 70 461 140 719 17 63 33 122 37 130 7 18 45 -96 70 -212z
m-4012 -353 c25 -93 92 -325 147 -513 l101 -344 -63 -136 c-305 -667 -454
-1198 -486 -1734 -5 -80 -12 -115 -24 -130 -16 -20 -17 -14 -24 138 -11 246
-22 367 -78 804 -52 400 -52 408 -52 680 -1 222 3 293 17 370 41 223 109 414
272 765 53 116 104 227 112 248 9 21 19 35 23 30 5 -4 29 -84 55 -178z m1795
-344 c17 -46 76 -215 131 -375 56 -160 135 -383 176 -496 58 -160 72 -209 64
-225 -5 -11 -46 -63 -91 -115 -44 -52 -120 -143 -168 -202 -103 -127 -87 -133
-187 67 -63 127 -116 282 -146 436 -19 93 -16 436 4 571 14 92 24 123 70 215
30 59 64 134 77 166 13 31 27 54 31 50 4 -5 22 -46 39 -92z m-621 -1128 c61
-253 75 -360 75 -573 0 -137 -4 -208 -17 -273 -20 -97 -66 -235 -104 -312 -68
-135 -249 -377 -264 -354 -22 34 -81 241 -99 346 -23 130 -27 340 -9 456 27
181 94 384 184 563 55 107 177 314 187 314 3 0 24 -75 47 -167z m-974 -496
l15 -199 -48 -82 c-46 -77 -158 -233 -217 -301 l-26 -30 5 103 c14 243 75 532
172 812 75 217 68 213 76 44 5 -82 15 -238 23 -347z m3752 -1181 c-2 -5 -17
25 -34 66 -21 50 -30 83 -26 99 5 19 12 6 35 -66 15 -49 26 -94 25 -99z"/>
<path d="M5041 11028 c-181 -461 -213 -783 -116 -1168 13 -52 33 -121 44 -153
l20 -58 -34 -142 c-64 -264 -79 -380 -79 -602 0 -314 32 -481 253 -1305 49
-184 122 -454 161 -600 39 -146 96 -352 126 -459 l56 -195 -40 -130 c-57 -184
-73 -271 -79 -428 -11 -294 59 -521 323 -1050 65 -130 114 -240 114 -256 0
-59 -43 -268 -120 -577 -132 -533 -156 -701 -147 -1044 3 -119 13 -261 21
-316 8 -55 16 -142 16 -193 0 -116 28 -256 80 -404 115 -327 147 -853 85
-1370 -16 -129 -72 -517 -80 -556 -5 -22 -4 -22 88 -22 l93 0 33 246 c17 136
37 298 43 361 6 62 15 110 18 106 23 -26 104 -405 115 -533 3 -41 8 -99 11
-127 l5 -53 148 0 147 0 0 338 c-1 355 11 505 55 721 24 119 110 394 120 384
14 -15 29 -506 29 -972 l0 -471 118 0 118 0 -7 68 c-13 125 -29 435 -39 777
-15 490 -32 729 -85 1205 -44 392 -55 533 -55 719 0 319 39 490 205 905 98
245 155 414 155 457 0 87 57 -124 85 -315 23 -157 38 -430 31 -571 -16 -317
-38 -493 -121 -945 -78 -428 -89 -575 -61 -810 19 -158 55 -311 141 -600 40
-135 83 -290 94 -344 21 -95 45 -332 37 -358 -3 -7 -7 -52 -10 -101 l-6 -87
184 0 183 0 7 53 c3 28 6 82 6 119 0 37 3 69 8 72 4 2 18 -46 30 -107 13 -62
25 -118 28 -124 2 -10 39 -13 139 -13 74 0 135 2 135 4 0 3 -6 35 -14 73 -31
145 -48 316 -53 523 l-6 215 60 120 c33 66 93 192 133 280 40 88 76 164 81
169 4 4 10 -3 14 -15 37 -119 159 -389 293 -646 l90 -172 -54 -155 c-46 -136
-88 -276 -108 -368 l-6 -28 130 0 c71 0 130 4 130 8 0 26 42 238 49 245 14 14
107 -225 96 -243 -4 -6 52 -10 154 -10 l161 0 41 83 c44 87 144 247 155 247 4
0 4 -26 0 -57 -4 -32 -4 -106 0 -165 l7 -108 110 0 109 0 -6 38 c-3 20 -9 125
-12 232 -5 145 -3 192 5 184 13 -12 128 -288 160 -387 l23 -67 99 0 c54 0 99
1 99 3 0 28 -127 363 -227 598 l-50 117 74 87 c86 102 219 272 288 369 l49 69
22 -84 23 -84 -24 -120 c-40 -200 -49 -292 -50 -475 0 -125 6 -206 19 -282
l18 -107 -37 -45 -37 -46 163 0 164 0 40 51 40 50 14 -50 14 -51 185 0 c167 0
184 2 178 16 -21 54 -58 202 -71 284 -24 153 -22 171 34 264 27 44 64 111 82
149 18 37 36 67 39 67 14 0 69 -351 85 -547 l7 -81 -41 -70 c-23 -39 -41 -73
-41 -76 0 -3 121 -6 268 -6 l269 0 -24 102 c-12 57 -28 159 -34 228 l-12 126
36 164 c19 91 41 199 47 240 19 119 101 313 253 600 l82 155 7 -50 c3 -28 7
-167 7 -310 1 -289 -11 -469 -64 -933 -19 -166 -35 -307 -35 -312 0 -6 47 -10
115 -10 l115 0 0 63 c0 34 9 215 19 402 11 187 23 426 26 530 7 187 -7 584
-25 720 -5 38 -7 71 -6 73 2 1 24 -42 51 -95 163 -335 269 -651 284 -845 20
-251 -38 -433 -237 -750 l-61 -98 259 0 258 0 64 88 c85 116 109 155 152 240
131 260 132 480 6 901 -57 188 -92 278 -260 671 -81 190 -162 388 -181 441
l-34 97 122 243 c176 352 301 654 493 1194 l70 197 0 1249 0 1249 -40 89
c-100 222 -221 408 -360 555 l-70 74 -30 128 c-139 608 -134 919 25 1474 86
296 105 394 112 556 7 169 -4 253 -57 459 -92 355 -163 541 -287 751 -133 226
-120 181 -99 335 10 74 20 146 23 162 l6 27 -111 0 c-92 0 -113 -3 -120 -16
-8 -15 -10 -15 -15 0 -6 14 -40 16 -307 16 -165 0 -300 -4 -300 -8 0 -5 -6
-57 -14 -118 -16 -121 -41 -428 -52 -633 l-6 -134 -59 148 c-55 141 -129 413
-177 651 l-18 89 -172 3 c-98 1 -172 -1 -172 -7 0 -5 17 -63 39 -129 l38 -121
-4 -533 c-4 -581 -10 -743 -25 -693 -5 17 -11 122 -12 235 -5 342 -42 523
-237 1153 l-31 97 -619 0 -619 0 5 -22 c3 -13 14 -63 25 -113 51 -222 114
-406 279 -808 108 -263 197 -501 226 -605 l18 -62 -33 -103 c-45 -141 -329
-847 -341 -847 -3 0 -11 30 -18 68 -37 207 -116 470 -202 675 -44 106 -48 122
-40 155 30 116 43 261 38 412 -9 229 -35 329 -193 735 -51 132 -109 296 -129
365 -20 69 -39 131 -41 138 -2 9 -62 12 -253 12 l-249 0 -7 -146 c-18 -359 36
-650 175 -939 31 -66 108 -203 170 -305 186 -304 221 -366 215 -382 -5 -12
-19 -1 -58 40 -122 130 -197 190 -471 382 -220 153 -311 227 -416 336 -271
281 -349 571 -264 982 l7 32 -315 0 -315 0 -21 -92 c-34 -148 -43 -224 -43
-368 0 -171 24 -322 75 -466 13 -38 12 -50 -10 -145 -29 -124 -91 -335 -108
-367 -12 -22 -14 -20 -81 58 -170 199 -253 358 -295 560 -19 91 -21 125 -16
255 6 159 27 280 84 468 l29 97 -123 0 -123 0 -21 -57 c-32 -84 -88 -294 -107
-398 -23 -123 -22 -353 1 -460 51 -237 174 -441 412 -685 l125 -128 -73 -141
c-40 -78 -75 -141 -78 -141 -3 0 -25 37 -49 83 -99 183 -223 387 -411 672
-109 165 -215 335 -236 377 l-38 77 136 278 c123 252 238 502 238 517 0 3 -78
6 -174 6 l-173 0 -67 -115 c-37 -63 -70 -115 -73 -115 -6 0 3 124 14 193 l6
37 -271 0 -270 0 -61 -152z m5247 -1130 c47 -185 49 -205 27 -310 -33 -159
-97 -335 -228 -628 -100 -225 -108 -242 -113 -237 -2 2 -16 73 -30 158 -25
149 -25 159 -13 316 19 252 7 556 -37 938 -51 447 -57 827 -17 993 7 31 355
-1007 411 -1230z m1092 1150 c0 -12 27 -138 59 -282 118 -519 134 -635 135
-936 0 -364 -44 -608 -175 -973 -50 -138 -69 -178 -69 -145 0 9 -4 60 -10 114
-5 55 -16 196 -25 314 -8 118 -22 283 -31 365 -13 135 -13 170 0 330 9 99 25
331 36 515 12 184 30 418 40 520 11 102 20 191 20 198 0 7 5 10 10 7 6 -3 10
-16 10 -27z m-6100 -341 c6 -64 18 -151 27 -192 l16 -74 -84 -166 -84 -166 -9
83 c-16 161 17 405 86 628 l33 105 3 -50 c1 -27 7 -103 12 -168z m3243 -222
c83 -204 123 -323 146 -430 11 -47 18 -85 16 -85 -6 0 -93 167 -132 255 -82
182 -143 398 -158 555 l-6 65 34 -100 c20 -55 64 -172 100 -260z m-1293 -27
c0 -23 80 -179 130 -253 116 -172 250 -301 581 -561 238 -187 357 -297 441
-407 69 -92 149 -251 173 -344 18 -71 24 -38 -123 -658 -38 -159 -84 -363
-103 -452 -30 -145 -36 -163 -54 -163 -11 0 -90 18 -175 40 -85 22 -178 45
-206 51 l-52 11 -20 69 c-20 64 -20 74 -7 142 35 189 49 336 49 547 1 247 -15
372 -69 558 -67 235 -139 380 -350 707 -137 214 -192 308 -233 400 l-28 64 15
135 c8 74 18 133 23 130 4 -3 8 -10 8 -16z m3627 -474 c6 -155 -6 -307 -37
-453 -21 -101 -109 -375 -118 -367 -3 3 0 38 7 78 32 208 59 634 62 973 l1
150 40 -120 c37 -111 40 -131 45 -261z m1119 -94 c18 -91 41 -234 51 -318 20
-179 12 -319 -32 -577 -47 -283 -58 -411 -52 -650 5 -244 25 -382 95 -682 22
-90 37 -163 34 -163 -2 0 -62 38 -133 85 -268 178 -278 225 -189 907 115 874
120 924 130 1323 4 182 11 339 16 349 10 26 35 -57 80 -274z m-6231 -129 c312
-374 417 -520 541 -755 l52 -98 -53 -112 c-73 -154 -146 -366 -180 -521 -6
-27 -11 -18 -54 90 -83 207 -141 308 -351 605 -159 226 -253 368 -304 461
l-36 66 29 84 c41 120 76 209 123 318 l42 95 30 -39 c17 -21 90 -109 161 -194z
m1509 -278 c150 -253 221 -388 275 -526 41 -106 84 -257 95 -337 5 -37 0 -29
-27 45 -84 226 -203 398 -444 645 l-122 125 29 85 c16 47 34 109 41 138 6 30
15 50 19 45 4 -4 64 -103 134 -220z m3721 -427 c-45 -236 -172 -836 -178 -842
-6 -7 -42 147 -72 313 l-23 124 87 182 c88 182 152 333 187 437 l18 55 8 -44
c6 -33 -1 -87 -27 -225z m-530 25 l26 -174 -42 -206 -41 -206 -119 -225 c-65
-124 -128 -249 -140 -277 -12 -29 -25 -53 -28 -53 -8 0 -69 333 -77 420 -6 54
-3 60 94 260 55 113 139 295 186 405 48 110 92 211 98 225 14 32 13 36 43
-169z m-3349 -107 c145 -191 202 -322 303 -704 38 -146 86 -317 105 -380 20
-63 36 -120 36 -125 0 -6 -30 -16 -66 -22 -188 -32 -331 -175 -394 -393 -18
-61 -23 -110 -27 -260 -3 -107 -1 -223 6 -274 l11 -90 -79 -120 c-112 -172
-193 -321 -253 -468 -29 -70 -53 -126 -54 -125 -2 1 6 33 16 70 11 38 29 125
41 195 18 109 20 152 16 302 -3 106 -12 204 -22 250 -29 132 -94 310 -164 451
l-68 137 64 93 c270 396 308 743 129 1186 l-45 113 97 142 c54 79 111 165 127
191 l30 48 69 -73 c37 -40 93 -105 122 -144z m2554 -19 c-6 -60 -40 -315 -75
-565 -114 -809 -131 -1005 -145 -1685 -23 -1092 -32 -1276 -91 -1780 -26 -215
-32 -310 -32 -465 0 -280 28 -439 148 -850 112 -385 155 -590 176 -850 21
-252 -7 -586 -76 -917 -31 -149 -171 -692 -181 -702 -12 -13 -86 274 -108 419
-20 139 -30 244 -66 692 -51 637 -54 857 -19 1673 13 312 5 1472 -12 1755 -12
197 -35 371 -94 700 -51 283 -72 432 -81 589 l-7 111 41 36 c181 155 265 514
233 996 l-11 166 125 272 c68 149 159 354 202 454 l78 184 3 -62 c2 -33 -2
-110 -8 -171z m-766 -16 c112 -371 125 -757 35 -1027 -12 -35 -24 -61 -27 -57
-3 3 -9 241 -13 528 -7 517 -11 580 -45 672 -5 14 -4 17 4 10 6 -5 26 -62 46
-126z m-3541 -41 c142 -285 185 -421 237 -742 67 -414 121 -547 357 -868 46
-62 62 -92 55 -101 -5 -6 -50 -64 -101 -127 -114 -143 -219 -295 -276 -402
-27 -50 -46 -77 -49 -68 -29 81 -167 686 -225 980 -91 469 -115 670 -115 985
-1 259 16 511 34 500 4 -2 41 -73 83 -157z m5755 -371 c12 -67 28 -145 34
-173 l11 -52 -101 -153 c-56 -85 -102 -147 -102 -139 -1 25 124 640 129 640 3
0 16 -55 29 -123z m-4593 -113 c25 -138 17 -327 -20 -449 -27 -94 -112 -285
-126 -285 -4 0 -26 33 -48 74 l-41 73 21 124 c12 68 36 174 55 236 36 119 121
323 134 323 5 0 16 -43 25 -96z m4078 -182 c16 -70 52 -206 79 -302 l50 -175
-12 -100 c-7 -55 -21 -152 -32 -215 -17 -101 -19 -143 -14 -340 8 -299 22
-412 78 -641 l30 -126 -50 -101 c-58 -117 -195 -362 -202 -362 -3 0 -42 94
-88 208 l-83 207 -15 160 c-22 222 -14 669 15 880 26 195 68 418 137 740 62
292 63 295 72 295 4 0 20 -57 35 -128z m-1932 -317 c11 -115 22 -226 26 -246
5 -34 3 -37 -28 -49 -19 -6 -73 -14 -121 -17 l-86 -6 28 136 c27 128 106 444
132 532 l12 40 8 -90 c5 -49 18 -184 29 -300z m1255 -91 c50 -283 53 -318 36
-444 -16 -113 -15 -311 2 -440 14 -101 13 -108 -10 -200 -26 -102 -88 -278
-133 -375 l-28 -60 -41 170 c-68 284 -102 493 -102 628 0 77 23 309 46 471 16
111 66 272 124 401 18 39 36 81 41 94 5 13 12 22 14 19 3 -3 26 -121 51 -264z
m292 -233 c-8 -45 -16 -67 -22 -61 -6 6 -3 33 9 75 9 36 19 64 21 62 3 -2 -1
-36 -8 -76z m-2466 -456 c24 -86 58 -308 67 -428 16 -229 -14 -503 -77 -712
l-18 -60 -60 80 c-147 198 -234 448 -234 670 0 81 1 83 75 241 42 87 79 166
84 174 10 21 112 71 135 68 12 -2 23 -15 28 -33z m391 3 c88 -23 83 -10 63
-159 -38 -267 -66 -616 -87 -1079 -6 -140 -15 -258 -18 -262 -6 -7 -134 72
-145 90 -3 5 4 37 15 73 125 399 150 776 78 1185 -11 66 -23 133 -26 151 -6
36 -16 36 120 1z m354 -104 c54 -14 135 -28 181 -31 49 -4 82 -10 83 -17 33
-632 0 -1058 -122 -1601 -23 -99 -42 -181 -44 -183 -1 -1 -22 23 -46 54 -23
31 -76 87 -117 124 l-74 68 6 754 c5 738 9 858 27 858 5 0 53 -11 106 -26z
m-2337 -260 c17 -82 62 -272 100 -422 l70 -273 -26 -130 c-13 -71 -65 -302
-113 -512 -49 -210 -110 -491 -137 -624 -27 -134 -51 -243 -54 -243 -3 0 -5
98 -6 218 -1 323 -42 556 -179 1027 -37 127 -74 254 -83 282 l-15 53 43 117
c56 155 153 355 230 473 66 101 132 191 137 187 1 -2 16 -70 33 -153z m5420
-292 c0 -30 -37 -154 -70 -232 -32 -76 -148 -280 -159 -280 -6 0 -167 267
-230 381 -27 49 -30 59 -20 87 13 37 13 37 87 16 78 -23 214 -15 307 18 88 32
85 31 85 10z m342 -30 c35 -21 129 -73 211 -116 125 -66 147 -81 147 -101 0
-47 -59 -253 -98 -344 -50 -115 -128 -245 -224 -373 -76 -101 -429 -526 -438
-527 -3 -1 -1 65 3 146 12 210 3 391 -22 486 l-21 77 91 127 c145 203 245 431
265 602 3 34 10 61 15 61 5 0 37 -17 71 -38z m-1794 -178 c59 -188 103 -1103
71 -1444 -18 -189 -19 -746 -1 -890 28 -229 84 -487 151 -704 25 -77 30 -115
35 -246 4 -85 11 -199 17 -252 9 -85 8 -110 -10 -206 -44 -231 -221 -904 -244
-927 -10 -10 -8 11 13 160 28 206 -9 489 -106 814 -14 47 -30 127 -35 176 -5
50 -13 468 -18 930 -5 462 -14 930 -20 1040 -6 110 -15 323 -21 473 -10 268
-27 453 -55 608 l-14 79 100 228 c54 126 99 234 99 240 0 24 17 -11 38 -79z
m-2859 -194 c74 -166 157 -299 304 -487 18 -22 18 -25 -63 -229 -101 -258
-237 -657 -281 -828 -26 -101 -34 -124 -40 -105 -4 13 -42 134 -84 269 -168
539 -186 713 -105 1024 32 123 128 408 167 495 l25 56 15 -45 c8 -25 36 -92
62 -150z m2383 -103 l-21 -52 1 150 0 150 20 -98 21 -97 -21 -53z m2949 10
c38 -54 40 -63 51 -173 13 -135 1 -327 -32 -486 -39 -189 -198 -636 -288 -813
-73 -141 -179 -274 -396 -495 -111 -113 -220 -226 -242 -252 l-40 -46 -12 164
c-7 91 -32 279 -57 426 l-45 263 48 69 c26 38 139 180 252 315 361 433 435
533 527 715 51 101 104 257 123 359 l13 68 29 -28 c17 -15 48 -54 69 -86z
m-3631 -152 c6 -71 13 -416 17 -765 6 -663 1 -865 -37 -1380 -11 -146 -20
-290 -20 -319 0 -32 -4 -51 -9 -45 -4 5 -34 71 -65 146 l-56 137 19 89 c35
154 51 315 51 500 0 241 -29 432 -95 633 l-25 76 34 159 c67 312 115 604 136
834 16 168 21 190 31 120 4 -30 12 -113 19 -185z m1974 25 c24 -75 53 -176 64
-226 l19 -91 -64 -99 c-82 -128 -156 -272 -204 -398 -42 -112 -44 -111 -54 34
-9 122 -42 342 -65 430 l-19 74 40 71 c99 172 224 363 231 352 5 -7 28 -73 52
-147z m-5249 -175 c72 -253 136 -605 134 -728 l0 -42 -30 65 c-89 192 -156
444 -166 620 -5 107 3 258 13 247 3 -3 25 -75 49 -162z m884 -455 c95 -348
127 -561 118 -785 -8 -214 -37 -342 -168 -745 -120 -367 -152 -545 -152 -830
l-1 -195 -28 63 -29 64 20 101 c35 174 44 289 38 482 -7 218 -33 358 -109 580
-57 169 -57 165 -17 400 56 330 247 1081 270 1058 4 -5 30 -91 58 -193z m3201
-820 c6 -179 10 -444 8 -590 -3 -257 -3 -263 -16 -185 -60 371 -87 1254 -48
1578 9 77 17 142 17 145 2 7 19 -417 39 -948z m-1828 820 l135 -115 6 -224
c14 -456 6 -686 -38 -1206 -14 -159 -32 -382 -40 -494 -8 -112 -16 -206 -18
-208 -2 -2 -46 63 -97 144 -292 464 -370 626 -416 869 -22 118 -14 349 15 479
42 178 292 880 311 873 4 -2 68 -55 142 -118z m3095 -273 c3 -196 22 -350 69
-562 35 -156 36 -162 25 -258 -28 -248 0 -549 75 -814 17 -57 14 -79 -27 -248
-27 -111 -91 -315 -98 -315 -8 0 -127 338 -171 485 -174 572 -185 1074 -34
1530 35 107 141 345 153 345 3 0 7 -73 8 -163z m-2641 -225 l41 -77 -24 -115
c-47 -227 -39 -458 21 -652 l23 -76 -38 -102 c-38 -101 -136 -328 -164 -379
-19 -35 -19 -37 15 284 60 560 69 689 71 988 0 114 4 207 8 207 4 0 25 -35 47
-78z m-2505 -788 c-22 -137 -52 -310 -66 -384 -35 -181 -117 -518 -123 -502
-6 19 16 226 39 362 17 104 180 782 187 776 1 -2 -16 -115 -37 -252z m6409
-457 c-66 -195 -139 -379 -199 -502 -49 -99 -49 -100 -50 -59 -2 114 53 299
138 460 60 114 155 267 159 256 1 -5 -20 -74 -48 -155z m-4936 -7 c31 -56 127
-210 214 -343 147 -225 262 -415 262 -435 0 -5 -25 -46 -56 -93 -110 -166
-190 -364 -233 -575 -52 -254 -76 -632 -68 -1038 6 -269 5 -280 -15 -320 l-21
-40 -79 223 c-227 643 -247 827 -159 1476 66 482 82 654 88 963 3 155 7 282 8
282 1 0 28 -45 59 -100z m3536 -673 l98 -277 -72 -180 c-39 -99 -74 -180 -77
-180 -3 0 -11 24 -17 53 -6 28 -49 165 -94 304 l-82 252 18 108 c24 156 36
274 36 388 l1 100 45 -145 c25 -80 90 -270 144 -423z m-2181 411 c62 -141 133
-329 161 -426 26 -90 34 -146 51 -347 11 -132 19 -278 19 -325 0 -168 -54
-421 -153 -715 -64 -190 -196 -547 -206 -558 -10 -10 -148 276 -204 423 -99
258 -158 538 -138 661 6 35 11 102 11 149 l0 85 84 166 c67 134 99 215 166
420 118 363 173 519 180 519 3 0 16 -24 29 -52z m2745 -678 c35 -107 81 -259
101 -337 l36 -141 -49 -89 c-28 -48 -81 -147 -119 -220 l-69 -131 -23 166
c-13 101 -43 244 -73 362 -28 107 -51 206 -51 220 0 30 165 380 175 371 4 -3
36 -94 72 -201z m-1620 -382 c20 -207 0 -344 -75 -522 -29 -69 -130 -248 -136
-242 -2 1 19 90 47 197 53 209 112 490 131 632 7 48 13 86 15 84 2 -1 10 -69
18 -149z m1301 -160 c37 -186 55 -363 55 -553 l0 -171 -38 -94 c-21 -52 -42
-104 -47 -115 -7 -17 -9 -15 -17 15 -5 19 -47 159 -94 311 -46 151 -84 292
-84 312 0 58 177 460 191 434 5 -8 20 -70 34 -139z m-655 95 c0 -9 25 -147 57
-305 l56 -289 -56 -177 c-87 -271 -128 -454 -143 -632 -12 -137 -24 -123 -94
117 -34 119 -73 256 -85 305 l-23 88 37 128 c101 346 236 782 243 782 5 0 8
-8 8 -17z m-1370 -896 c17 -49 53 -141 80 -204 l49 -115 -91 -102 c-102 -115
-218 -265 -269 -349 -19 -31 -38 -55 -42 -54 -5 1 -36 55 -70 119 l-61 117
148 453 c82 249 151 460 153 468 2 8 19 -43 38 -115 18 -71 48 -170 65 -218z
m1074 -728 l23 -76 -51 -58 -51 -59 -7 40 c-9 52 -10 379 -1 388 7 7 38 -77
87 -235z"/>
</g>
</svg>
